<?xml version="1.0" encoding="iso-8859-1"?>
<!-- Generator: Adobe Illustrator 19.0.0, SVG Export Plug-In . SVG Version: 6.00 Build 0)  -->
<svg version="1.1" id="Layer_1" xmlns="http://www.w3.org/2000/svg" xmlns:xlink="http://www.w3.org/1999/xlink" x="0px" y="0px"
	 viewBox="0 0 512 512" style="enable-background:new 0 0 512 512;" xml:space="preserve">
<g>
	<path style="fill:#666666;" d="M512,256c0,141.383-114.617,256-256,256S0,397.383,0,256S114.617,0,256,0S512,114.617,512,256"/>
	<path style="fill:#B3B3B3;" d="M441.379,256c0,102.382-82.997,185.379-185.379,185.379S70.621,358.382,70.621,256
		S153.618,70.621,256,70.621S441.379,153.618,441.379,256"/>
	<path style="fill:#484848;" d="M282.483,439.274v-86.166c0-21.398,22.51-35.31,41.649-25.741l83.35,35.275
		c2.004-2.842,3.875-5.764,5.711-8.722c0.653-1.033,1.28-2.083,1.907-3.134c5.932-9.975,10.982-20.533,14.998-31.612l-79.236-29.343
		c-16.605-9.348-19.712-38.012-6.241-51.482l81.479-55.993c-5.606-12.924-12.738-24.982-21.001-36.184l-76.059,38.285
		c-18.97,8.651-46.557,1.386-46.557-22.634V72.726c-3.893-0.556-7.812-0.998-11.767-1.359c-4.864-0.388-9.746-0.742-14.716-0.742
		c-4.97,0-9.852,0.353-14.716,0.742c-3.955,0.362-7.874,0.803-11.767,1.359v89.097c0,24.02-29.246,33.492-46.557,22.634
		l-76.058-38.285c-8.263,11.202-15.395,23.261-21.001,36.184l81.479,55.993c13.471,13.471,10.364,42.134-6.241,51.482
		l-79.236,29.343c4.017,11.079,9.066,21.636,14.998,31.612c0.627,1.05,1.254,2.101,1.907,3.134c1.836,2.957,3.708,5.879,5.711,8.722
		l83.35-35.275c19.138-9.569,41.649,4.343,41.649,25.741v86.166c3.893,0.556,7.812,1.006,11.767,1.359
		c4.864,0.388,9.746,0.75,14.716,0.75c4.97,0,9.852-0.362,14.716-0.75C274.67,440.28,278.59,439.83,282.483,439.274"/>
	<path style="fill:#B3B3B3;" d="M291.31,256c0,19.5-15.81,35.31-35.31,35.31S220.69,275.5,220.69,256s15.81-35.31,35.31-35.31
		S291.31,236.5,291.31,256"/>
</g>
<g>
</g>
<g>
</g>
<g>
</g>
<g>
</g>
<g>
</g>
<g>
</g>
<g>
</g>
<g>
</g>
<g>
</g>
<g>
</g>
<g>
</g>
<g>
</g>
<g>
</g>
<g>
</g>
<g>
</g>
</svg>
