<?xml version="1.0" encoding="iso-8859-1"?>
<!-- Generator: Adobe Illustrator 19.0.0, SVG Export Plug-In . SVG Version: 6.00 Build 0)  -->
<svg version="1.1" id="Layer_1" xmlns="http://www.w3.org/2000/svg" xmlns:xlink="http://www.w3.org/1999/xlink" x="0px" y="0px"
	 viewBox="0 0 511.999 511.999" style="enable-background:new 0 0 511.999 511.999;" xml:space="preserve">
<polygon style="fill:#86CBED;" points="95.899,87.893 71.884,231.984 440.117,231.984 416.101,87.893 "/>
<rect x="456.127" y="135.92" style="fill:#FCEA10;" width="48.03" height="64.039"/>
<rect x="119.911" y="119.91" style="fill:#F9B233;" width="96.059" height="48.03"/>
<g>
	<rect x="7.843" y="135.92" style="fill:#FCEA10;" width="48.03" height="64.039"/>
	<rect x="175.951" y="23.853" style="fill:#FCEA10;" width="160.098" height="64.039"/>
	<rect x="31.859" y="231.979" style="fill:#FCEA10;" width="448.284" height="144.088"/>
</g>
<g>
	<rect x="31.859" y="264.009" style="fill:#F9B233;" width="40.03" height="64.039"/>
	<rect x="175.951" y="264.009" style="fill:#F9B233;" width="160.098" height="64.039"/>
</g>
<g>
	<rect x="71.882" y="264.009" style="fill:#FFFFFF;" width="72.046" height="64.039"/>
	<rect x="368.068" y="264.009" style="fill:#FFFFFF;" width="72.046" height="64.039"/>
</g>
<rect x="440.117" y="264.009" style="fill:#F9B233;" width="40.03" height="64.039"/>
<rect x="7.843" y="360.067" style="fill:#CBBBA0;" width="496.313" height="48.03"/>
<g>
	<rect x="31.859" y="408.096" style="fill:#575756;" width="72.046" height="80.049"/>
	<rect x="408.098" y="408.096" style="fill:#575756;" width="72.046" height="80.049"/>
</g>
<g>
	<rect x="95.902" y="288.185" style="fill:#1D1D1B;" width="24.016" height="15.686"/>
	<rect x="392.088" y="288.185" style="fill:#1D1D1B;" width="24.016" height="15.686"/>
	<path style="fill:#1D1D1B;" d="M343.893,335.887H168.107v-79.726h175.787v79.726H343.893z M183.792,320.202h144.416v-48.355
		H183.792V320.202z"/>
</g>
<rect x="199.96" y="288.185" style="fill:#FFFFFF;" width="112.068" height="15.686"/>
<g>
	<rect x="199.96" y="48.029" style="fill:#1D1D1B;" width="112.068" height="15.686"/>
	<path style="fill:#1D1D1B;" d="M407.934,215.974h-15.686c0-22.16-18.028-40.188-40.188-40.188
		c-22.16,0-40.189,18.028-40.189,40.188h-15.686c0-30.809,25.066-55.873,55.874-55.873S407.934,185.165,407.934,215.974z"/>
	<path style="fill:#1D1D1B;" d="M0,415.938h24.016v80.051h87.731v-80.051h288.506v80.051h87.731v-80.051h24.016v-63.716H0V415.938z
		 M96.061,480.304H39.701v-64.365h56.359V480.304z M472.299,480.304h-56.359v-64.365h56.359V480.304z M15.686,367.908h480.629
		v32.345H15.686V367.908z"/>
	<path style="fill:#1D1D1B;" d="M448.283,128.08v64.04h-6.859L422.746,80.05h-78.852V16.01H168.107v64.04H89.255L70.576,192.12
		h-6.859v-64.04H0v79.726h55.874h7.843h4.245l-2.723,16.335H24.016v119.913h15.686v-8.168h112.07V256.16H39.701v-16.335h432.597
		v16.335h-112.07v79.726h112.07v8.168h15.686V224.141H446.76l-2.723-16.335h4.245h7.843h55.874V128.08H448.283z M48.031,192.12
		H15.686v-48.355h32.346V192.12z M136.086,320.202h-56.36v-48.355h56.359v48.355H136.086z M64.04,271.847v48.355H39.701v-48.355
		H64.04z M375.914,271.847h56.359v48.355h-56.359V271.847z M447.96,320.202v-48.355h24.339v48.355H447.96z M183.792,31.695h144.416
		V80.05H183.792V31.695z M208.132,127.756v32.345h-80.375v-32.345C127.757,127.756,208.132,127.756,208.132,127.756z
		 M151.772,112.07V95.735h32.346v16.335C184.118,112.07,151.772,112.07,151.772,112.07z M81.142,224.141l21.401-128.405h33.543
		v16.335h-24.015v63.716h111.746V112.07h-24.016V95.735h209.655l21.4,128.405H81.142z M496.314,192.12h-32.346v-48.355h32.346
		V192.12z"/>
</g>
<rect x="143.931" y="136.087" style="fill:#FFFFFF;" width="48.031" height="15.686"/>
<g>
</g>
<g>
</g>
<g>
</g>
<g>
</g>
<g>
</g>
<g>
</g>
<g>
</g>
<g>
</g>
<g>
</g>
<g>
</g>
<g>
</g>
<g>
</g>
<g>
</g>
<g>
</g>
<g>
</g>
</svg>
