<?xml version="1.0" encoding="iso-8859-1"?>
<!-- Generator: Adobe Illustrator 19.0.0, SVG Export Plug-In . SVG Version: 6.00 Build 0)  -->
<svg version="1.1" id="Layer_1" xmlns="http://www.w3.org/2000/svg" xmlns:xlink="http://www.w3.org/1999/xlink" x="0px" y="0px"
	 viewBox="0 0 512 512" style="enable-background:new 0 0 512 512;" xml:space="preserve">
<rect x="119.898" y="39.844" style="fill:#86CBED;" width="272.194" height="144.1"/>
<polygon style="fill:#F9B233;" points="424.122,320.046 87.878,320.046 87.878,191.954 151.925,191.954 151.925,167.936 
	360.075,167.936 360.075,183.948 424.122,183.948 "/>
<rect x="31.838" y="167.938" style="fill:#E30613;" width="88.062" height="24.015"/>
<g>
	<rect x="175.947" y="199.962" style="fill:#FFFFFF;" width="40.032" height="64.047"/>
	<rect x="296.032" y="199.962" style="fill:#FFFFFF;" width="40.032" height="64.047"/>
</g>
<g>
	<rect x="328.055" y="288.023" style="fill:#CBBBA0;" width="72.055" height="24.015"/>
	<rect x="111.9" y="288.023" style="fill:#CBBBA0;" width="72.055" height="24.015"/>
</g>
<g>
	<rect x="392.102" y="167.938" style="fill:#E30613;" width="88.062" height="24.015"/>
	<rect x="119.898" y="7.821" style="fill:#E30613;" width="272.194" height="32.023"/>
</g>
<g>
	<rect x="424.126" y="215.968" style="fill:#575756;" width="80.053" height="288.211"/>
	<rect x="7.821" y="215.968" style="fill:#575756;" width="80.053" height="288.211"/>
</g>
<rect x="55.851" y="312.038" style="fill:#F9B233;" width="408.297" height="160.117"/>
<rect x="55.851" y="312.038" style="fill:#E30613;" width="408.297" height="32.023"/>
<g>
	<path style="fill:#1D1D1B;" d="M303.85,151.924h-15.642c0-17.759-14.448-32.208-32.208-32.208s-32.208,14.448-32.208,32.208H208.15
		c0-26.384,21.465-47.85,47.85-47.85C282.384,104.075,303.85,125.541,303.85,151.924z"/>
	<path style="fill:#1D1D1B;" d="M223.792,271.827h-55.671v-79.688h55.671V271.827z M183.763,256.186h24.388V207.78h-24.388V256.186z
		"/>
	<path style="fill:#1D1D1B;" d="M343.878,271.827h-55.671v-79.688h55.671V271.827z M303.85,256.186h24.388V207.78H303.85V256.186z"
		/>
</g>
<g>
	<rect x="239.993" y="192.141" style="fill:#FFFFFF;" width="32.022" height="15.642"/>
	<rect x="239.993" y="224.164" style="fill:#FFFFFF;" width="32.022" height="15.642"/>
	<rect x="239.993" y="256.188" style="fill:#FFFFFF;" width="32.022" height="15.642"/>
	
		<rect x="172.125" y="60.251" transform="matrix(-0.7071 -0.7071 0.7071 -0.7071 236.5629 297.7397)" style="fill:#FFFFFF;" width="15.641" height="79.25"/>
	
		<rect x="144.109" y="68.546" transform="matrix(-0.7072 -0.707 0.707 -0.7072 202.9085 243.766)" style="fill:#FFFFFF;" width="15.641" height="22.644"/>
	
		<rect x="292.423" y="92.061" transform="matrix(-0.7071 -0.7071 0.7071 -0.7071 496.2142 405.302)" style="fill:#FFFFFF;" width="79.25" height="15.641"/>
	
		<rect x="348.76" y="72.046" transform="matrix(-0.7071 -0.7071 0.7071 -0.7071 558.2244 390.9572)" style="fill:#FFFFFF;" width="22.644" height="15.641"/>
</g>
<g>
	<rect x="79.876" y="336.241" style="fill:#1D1D1B;" width="360.256" height="15.642"/>
	<polygon style="fill:#1D1D1B;" points="80.058,496.358 15.642,496.358 15.642,479.977 31.838,479.977 31.838,464.335 
		15.642,464.335 15.642,447.516 31.838,447.516 31.838,431.875 15.642,431.875 15.642,415.055 31.838,415.055 31.838,399.413 
		15.642,399.413 15.642,382.593 31.838,382.593 31.838,366.952 15.642,366.952 15.642,350.132 31.838,350.132 31.838,334.49 
		15.642,334.49 15.642,319.861 31.838,319.861 31.838,304.22 15.642,304.22 15.642,287.838 31.838,287.838 31.838,272.196 
		15.642,272.196 15.642,255.376 31.838,255.376 31.838,239.735 15.642,239.735 15.642,223.792 80.058,223.792 80.058,248.179 
		63.861,248.179 63.861,263.821 80.058,263.821 80.058,296.029 95.699,296.029 95.699,208.15 0,208.15 0,512 95.699,512 
		95.699,488.169 80.058,488.169 	"/>
	<polygon style="fill:#1D1D1B;" points="416.301,208.15 416.301,296.029 431.942,296.029 431.942,263.821 448.139,263.821 
		448.139,248.179 431.942,248.179 431.942,223.792 496.358,223.792 496.358,239.735 480.162,239.735 480.162,255.376 
		496.358,255.376 496.358,272.196 480.162,272.196 480.162,287.838 496.358,287.838 496.358,304.22 480.162,304.22 480.162,319.861 
		496.358,319.861 496.358,334.49 480.162,334.49 480.162,350.132 496.358,350.132 496.358,366.952 480.162,366.952 480.162,382.593 
		496.358,382.593 496.358,399.413 480.162,399.413 480.162,415.055 496.358,415.055 496.358,431.875 480.162,431.875 
		480.162,447.516 496.358,447.516 496.358,464.335 480.162,464.335 480.162,479.977 496.358,479.977 496.358,496.358 
		431.942,496.358 431.942,488.169 416.301,488.169 416.301,512 512,512 512,208.15 	"/>
	<path style="fill:#1D1D1B;" d="M112.08,184.133H39.659v-8.376h64.231v-15.642H24.017v39.659h103.705v-8.006h16.382v16.382h-24.017
		v72.052h-16.011v24.017H48.034v175.757h423.937V304.22h-64.047v-24.017h-16.011V208.15h-24.017v-16.382h16.382v8.006h103.704
		v-39.659H408.11v15.642h64.232v8.376H399.92V0H112.08V184.133z M352.255,280.203h-32.023v24.017H191.769v-24.017h-32.023V175.758
		h192.509v104.445H352.255z M135.728,223.792h8.376v56.411h-8.376V223.792z M119.717,295.844h56.411v8.376h-56.411
		C119.717,304.22,119.717,295.844,119.717,295.844z M456.33,464.335h-24.388v-40.213H416.3v40.213h-32.393v-40.213h-15.642v40.213
		h-32.393v-40.213h-15.642v40.213h-32.393v-40.213h-15.642v40.213h-32.393v-40.213h-15.642v40.213h-32.393v-40.213h-15.642v40.213
		h-32.393v-40.213h-15.642v40.213H95.699v-40.213H80.058v40.213H63.676V319.861H456.33V464.335z M392.283,304.22h-56.411v-8.376
		h56.411V304.22z M376.272,223.792v56.411h-8.376v-56.411L376.272,223.792L376.272,223.792z M127.722,15.642h256.556v16.382H127.722
		V15.642z M384.278,47.665v128.462h-16.382v-16.011H144.104v16.011h-16.382V47.665H384.278z"/>
</g>
<g>
</g>
<g>
</g>
<g>
</g>
<g>
</g>
<g>
</g>
<g>
</g>
<g>
</g>
<g>
</g>
<g>
</g>
<g>
</g>
<g>
</g>
<g>
</g>
<g>
</g>
<g>
</g>
<g>
</g>
</svg>
